<mxfile host="app.diagrams.net" modified="2023-05-27T06:13:19.696Z" agent="Mozilla/5.0 (Windows NT 10.0; Win64; x64) AppleWebKit/537.36 (KHTML, like Gecko) Chrome/113.0.0.0 Safari/537.36" version="21.2.3" etag="VU3nvbmMmsOluE8h8pKv" type="github">
  <diagram name="Page-1" id="VRMYByV39FJJs1CdaqhI">
    <mxGraphModel>
      <root>
        <mxCell id="0" />
        <mxCell id="1" parent="0" />
      </root>
    </mxGraphModel>
  </diagram>
</mxfile>
